HIERARCHY
ROOT Hips
{
	OFFSET 0.000000 88.474243 0.000000
	CHANNELS 6 Xposition Yposition Zposition Zrotation Yrotation Xrotation 
	JOINT Hips_Spine
	{
		OFFSET 0.000000 0.000000 0.000000
		CHANNELS 3 Zrotation Yrotation Xrotation
		JOINT Spine
		{
			OFFSET 0.005100 8.711998 -0.691000
			CHANNELS 3 Zrotation Yrotation Xrotation
			JOINT Spine1
			{
				OFFSET -0.009200 8.660301 -1.275000
				CHANNELS 3 Zrotation Yrotation Xrotation
				JOINT Spine2
				{
					OFFSET 0.006300 9.852501 -1.857000
					CHANNELS 3 Zrotation Yrotation Xrotation
					JOINT Spine2_Neck
					{
						OFFSET 0.000000 0.000000 0.000000
						CHANNELS 3 Zrotation Yrotation Xrotation
						JOINT Neck
						{
							OFFSET 0.016300 11.420799 -0.263300
							CHANNELS 3 Zrotation Yrotation Xrotation
							End Site #name: Head
							{
								OFFSET -0.019200 9.262405 2.362500
							}
						}
					}
					JOINT Spine2_LeftShoulder
					{
						OFFSET 0.000000 0.000000 0.000000
						CHANNELS 3 Zrotation Yrotation Xrotation
						JOINT LeftShoulder
						{
							OFFSET 5.616900 6.732201 -0.345700
							CHANNELS 3 Zrotation Yrotation Xrotation
							JOINT LeftArm
							{
								OFFSET 10.664888 -0.183372 -2.440700
								CHANNELS 3 Zrotation Yrotation Xrotation
								JOINT LeftForeArm
								{
									OFFSET 27.459126 0.000000 0.000000
									CHANNELS 3 Zrotation Yrotation Xrotation
									End Site #name: LeftHand
									{
										OFFSET 21.306858 0.000000 0.000000
									}
								}
							}
						}
					}
					JOINT Spine2_RightShoulder
					{
						OFFSET 0.000000 0.000000 0.000000
						CHANNELS 3 Zrotation Yrotation Xrotation
						JOINT RightShoulder
						{
							OFFSET -5.580300 6.737503 -0.344400
							CHANNELS 3 Zrotation Yrotation Xrotation
							JOINT RightArm
							{
								OFFSET -10.679335 -0.188484 -2.383900
								CHANNELS 3 Zrotation Yrotation Xrotation
								JOINT RightForeArm
								{
									OFFSET -27.503529 0.000000 0.000000
									CHANNELS 3 Zrotation Yrotation Xrotation
									End Site #name: RightHand
									{
										OFFSET -21.306808 0.000000 0.000000
									}
								}
							}
						}
					}
				}
			}
		}
	}
	JOINT Hips_LeftUpLeg
	{
		OFFSET 0.000000 0.000000 0.000000
		CHANNELS 3 Zrotation Yrotation Xrotation
		JOINT LeftUpLeg
		{
			OFFSET 6.857700 -6.739601 0.312100
			CHANNELS 3 Zrotation Yrotation Xrotation
			JOINT LeftLeg
			{
				OFFSET -0.367590 -34.731552 -4.572400
				CHANNELS 3 Zrotation Yrotation Xrotation
				End Site #name: LeftFoot
				{
					OFFSET 0.367590 -34.656704 -6.067400
				}
			}
		}
	}
	JOINT Hips_RightUpLeg
	{
		OFFSET 0.000000 0.000000 0.000000
		CHANNELS 3 Zrotation Yrotation Xrotation
		JOINT RightUpLeg
		{
			OFFSET -6.876100 -6.733299 0.301000
			CHANNELS 3 Zrotation Yrotation Xrotation
			JOINT RightLeg
			{
				OFFSET 0.347353 -34.795158 -4.515900
				CHANNELS 3 Zrotation Yrotation Xrotation
				End Site #name: RightFoot
				{
					OFFSET -0.347353 -34.589367 -6.070300
				}
			}
		}
	}
}
MOTION
Frames: 14
Frame Time: 0.041667
-0.061052 0.435062 -7.593504 -3.371886 5.553854 -7.475607 -0.000000 0.000000 0.000000 -0.857269 0.307783 2.632250 0.687280 0.161524 1.563396 0.000000 0.000000 0.000000 0.836378 -1.446209 -2.257632 -2.672712 -1.348267 -9.873325 1.364669 -0.731243 1.274951 -20.627100 -6.027180 1.924479 -13.225638 -17.580623 0.063807 2.323065 -31.924718 -1.624202 0.918335 -0.432214 0.485358 12.278687 7.877458 2.877548 34.887674 3.939700 -3.967177 0.624542 29.332665 0.630756 0.000000 -0.000000 0.000000 2.781764 16.556737 -18.814935 -1.264644 -1.952869 32.205422 0.000000 0.000000 0.000000 5.129039 -1.392648 -15.580140 1.557008 2.598583 19.648894 
0.151462 0.429879 -8.366336 -3.287338 5.396552 -7.177364 -0.000000 0.000000 0.000000 -1.039330 0.362043 2.586236 0.619286 0.174713 1.343520 0.000000 0.000000 0.000000 0.824158 -1.396783 -1.642085 -2.547049 -1.453064 -9.090562 1.264174 -0.847878 1.374415 -20.826942 -6.406492 2.217298 -13.987507 -18.850889 -0.182894 1.926545 -34.156788 -1.013244 0.926628 -0.284563 0.226005 12.375340 8.118701 2.808915 34.798768 5.239727 -3.184699 0.611187 30.475195 0.615211 0.000000 -0.000000 0.000000 1.915609 16.699426 -20.821882 -1.637559 -2.420071 32.944576 0.000000 0.000000 0.000000 4.931109 -1.252792 -16.592029 1.155481 2.507660 18.408581 
0.340830 0.426745 -9.088952 -3.318774 5.163760 -6.791848 -0.000000 0.000000 0.000000 -1.217735 0.423157 2.556442 0.572987 0.181300 1.121409 0.000000 0.000000 0.000000 0.825349 -1.392834 -1.104963 -2.352205 -1.665545 -8.433831 1.151188 -1.012799 1.515148 -20.895775 -7.018559 2.560816 -15.199343 -20.962316 -0.162947 1.460575 -36.593134 -0.401927 0.951526 -0.157007 0.041354 12.903427 8.003599 2.746317 34.989786 6.745626 -2.430664 0.655790 31.443864 0.705801 0.000000 -0.000000 0.000000 1.062110 17.190245 -22.988771 -1.957205 -2.805348 33.784854 0.000000 0.000000 -0.000000 4.773769 -1.049221 -17.771160 1.126943 3.306542 17.305793 
0.463451 0.444723 -9.761457 -3.292915 4.874976 -6.301100 -0.000000 0.000000 0.000000 -1.387059 0.491117 2.554713 0.551685 0.186104 0.922656 0.000000 0.000000 0.000000 0.836078 -1.438449 -0.654762 -2.104602 -1.941040 -7.891874 1.023715 -1.250307 1.687429 -20.952223 -7.882528 2.966970 -17.007614 -23.648402 0.597549 0.918919 -38.998379 0.242757 0.981368 -0.055457 -0.032096 13.699792 7.692516 2.731649 35.457960 8.536232 -1.738902 0.770765 32.014426 0.841606 0.000000 -0.000000 0.000000 -0.110265 17.223342 -25.150941 -2.050811 -2.831869 34.274688 0.000000 -0.000000 0.000000 4.380872 -0.926606 -19.706847 1.488824 4.310993 18.470568 
0.474014 0.505357 -10.372203 -3.240914 4.793553 -5.802710 -0.000000 0.000000 0.000000 -1.495090 0.575347 2.551415 0.558556 0.185951 0.773217 0.000000 0.000000 0.000000 0.857586 -1.533557 -0.284290 -1.777624 -2.257251 -7.447144 0.879780 -1.556707 1.904587 -21.131813 -8.951334 3.435917 -19.530277 -26.884808 2.207449 0.298368 -41.303142 0.900815 1.018735 0.020526 0.021437 14.587034 7.513894 2.778344 36.464688 10.859325 -0.875414 0.934699 31.914902 1.052702 0.000000 -0.000000 0.000000 -1.662384 16.838596 -27.226630 -2.108669 -2.799333 34.648725 0.000000 -0.000000 0.000000 3.808675 -1.060642 -21.961595 1.967372 4.976531 21.552222 
0.408640 0.574935 -10.940671 -3.004523 5.374580 -5.372957 -0.000000 0.000000 0.000000 -1.587894 0.656776 2.553532 0.561654 0.175841 0.682199 0.000000 0.000000 0.000000 0.862205 -1.577977 0.086268 -1.425166 -2.399019 -7.013347 0.761828 -1.789710 2.152674 -21.349334 -9.696818 3.825305 -22.436271 -29.378004 4.245387 -0.260770 -42.409279 1.464376 1.054217 0.105486 0.205591 15.344808 7.931003 2.951079 38.101774 13.652333 0.620595 1.133000 31.851802 1.338728 0.000000 -0.000000 0.000000 -3.003722 16.228576 -28.713586 -2.190137 -2.808833 35.247912 -0.000000 -0.000000 0.000000 3.319230 -1.602259 -24.641657 2.079259 5.039611 25.256975 
0.303572 0.614884 -11.484959 -2.642047 6.249448 -4.942538 -0.000000 0.000000 0.000000 -1.666740 0.682605 2.537572 0.558624 0.165134 0.658653 0.000000 0.000000 0.000000 0.849403 -1.567056 0.465112 -1.087879 -2.370090 -6.620390 0.663190 -1.944883 2.444944 -21.596090 -10.144941 4.135446 -25.612362 -30.912422 6.670152 -0.713629 -42.041716 1.907987 1.087523 0.203038 0.541488 15.929194 8.912829 3.268590 40.593613 16.441225 2.990588 1.335841 32.136081 1.697839 0.000000 -0.000000 0.000000 -3.976326 15.651135 -29.808818 -2.217911 -2.746956 36.201351 -0.000000 -0.000000 0.000000 2.888556 -2.482893 -27.431739 1.868160 4.583772 28.691960 
0.197161 0.606838 -12.009875 -2.225146 7.201293 -4.443776 -0.000000 0.000000 0.000000 -1.800363 0.678521 2.523151 0.549904 0.148424 0.685128 0.000000 0.000000 0.000000 0.812134 -1.491401 0.857779 -0.802242 -2.171742 -6.239021 0.590184 -2.014136 2.759413 -21.816486 -10.320581 4.354877 -28.954364 -31.493064 9.460150 -1.046105 -40.710758 2.224024 1.132810 0.324219 1.006503 16.321397 10.397508 3.765779 44.110545 19.293976 6.410169 1.505040 32.971619 2.124279 0.000000 -0.000000 0.000000 -4.794252 14.890566 -30.823945 -2.195299 -2.640204 37.331018 -0.000000 -0.000000 0.000000 2.584677 -3.498072 -30.219229 1.680237 4.251035 31.646952 
0.126197 0.559033 -12.515597 -1.772658 8.287279 -3.885117 -0.000000 0.000000 0.000000 -2.003670 0.660033 2.512888 0.536059 0.131635 0.740491 0.000000 0.000000 0.000000 0.752247 -1.348034 1.247637 -0.612968 -1.820915 -5.911910 0.540121 -1.999810 3.072075 -21.973183 -10.265611 4.491532 -31.772178 -30.963863 11.910892 -1.269347 -38.694119 2.425493 1.199840 0.461672 1.594775 16.543020 12.289805 4.448425 47.287485 20.882773 9.834161 1.671366 34.612733 2.610890 0.000000 -0.000000 0.000000 -5.398432 14.115940 -31.795885 -2.149109 -2.574220 38.547767 -0.000000 -0.000000 -0.000000 2.475843 -4.314541 -32.982475 1.476910 3.917395 34.144821 
0.083956 0.492078 -13.006842 -1.460942 9.099884 -3.330999 -0.000000 0.000000 0.000000 -2.255788 0.607698 2.566453 0.509427 0.095965 0.831269 0.000000 0.000000 0.000000 0.705242 -1.251005 1.499624 -0.463046 -1.580312 -5.822270 0.518582 -1.977922 3.383619 -22.065099 -10.289410 4.607380 -34.239053 -30.051113 14.630550 -1.387222 -36.923842 2.511093 1.226502 0.572335 2.140779 16.580644 14.028568 5.070834 49.276648 21.218368 12.284378 1.639669 36.652975 2.989204 0.000000 -0.000000 0.000000 -5.857013 13.298713 -32.968088 -2.093746 -2.543125 39.715815 -0.000000 -0.000000 -0.000000 2.481072 -4.750461 -35.399131 1.600178 3.905721 35.981382 
0.066431 0.420581 -13.486180 -1.285372 9.633745 -2.800391 -0.000000 -0.000000 -0.000000 -2.541337 0.507196 2.653641 0.458757 0.045385 0.943417 0.000000 0.000000 0.000000 0.670255 -1.194176 1.620065 -0.366976 -1.470793 -5.990163 0.521150 -1.940359 3.711869 -22.094160 -10.348073 4.683682 -36.389192 -29.253702 17.316698 -1.418242 -35.498407 2.528721 1.209956 0.665416 2.633520 16.512819 15.511196 5.617778 49.970058 20.858177 13.928982 1.407779 38.610029 3.293758 0.000000 -0.000000 0.000000 -6.163220 12.618288 -34.198421 -1.930203 -2.531221 40.706372 -0.000000 -0.000000 -0.000000 2.575691 -4.738903 -37.450866 2.038045 4.176374 37.261495 
0.079562 0.370814 -13.948899 -1.202848 9.984825 -2.430400 -0.000000 -0.000000 -0.000000 -2.810229 0.374680 2.770231 0.394395 -0.013800 1.065548 0.000000 0.000000 0.000000 0.647455 -1.169037 1.613191 -0.265578 -1.511895 -6.413707 0.544022 -1.885989 4.018953 -22.065998 -10.391490 4.717569 -37.954277 -28.493656 19.450331 -1.388153 -34.418704 2.487366 1.163549 0.727185 3.036982 16.372284 16.706964 6.049667 49.530323 20.055377 14.889298 1.149890 40.332072 3.147471 0.000000 -0.000000 0.000000 -6.148026 12.061982 -34.961727 -1.617297 -2.355898 41.346388 -0.000000 -0.000000 -0.000000 2.789308 -4.640749 -39.354655 2.664929 4.525302 38.536874 
0.130738 0.331438 -14.419678 -1.184275 10.026304 -2.226973 -0.000000 -0.000000 -0.000000 -3.020328 0.191828 2.768432 0.317852 -0.095111 1.192872 0.000000 0.000000 0.000000 0.646098 -1.189367 1.454891 -0.183827 -1.696360 -7.102930 0.586701 -1.820851 4.283012 -21.951039 -10.437010 4.708156 -38.968024 -27.910144 20.951218 -1.322303 -33.781138 2.430634 1.082010 0.762181 3.336719 16.073295 17.537585 6.337179 48.251990 19.093328 15.127357 0.725543 41.484178 2.804319 0.000000 -0.000000 0.000000 -5.826856 11.586315 -35.228346 -1.307760 -2.138893 41.693315 -0.000000 -0.000000 -0.000000 3.003250 -4.510637 -41.127591 3.393585 4.931911 39.433734 
0.208742 0.324627 -14.878401 -1.200085 10.154941 -2.279932 -0.000000 -0.000000 -0.000000 -3.135979 0.022968 2.842363 0.259524 -0.164596 1.343414 0.000000 0.000000 0.000000 0.635556 -1.234858 1.395781 -0.158557 -1.954284 -7.654224 0.640895 -1.740522 4.514312 -21.790367 -10.440111 4.679540 -39.363920 -27.412698 21.746639 -1.258578 -33.451909 2.432350 1.011415 0.812741 3.498978 15.790911 18.194976 6.548689 47.233190 18.277111 15.328728 0.353734 42.201205 2.443163 0.000000 -0.000000 0.000000 -5.442502 11.436829 -35.109920 -0.990791 -1.848263 41.703150 -0.000000 -0.000000 -0.000000 3.164047 -4.624194 -41.841725 2.951411 4.296465 39.511951 
